<?xml version="1.0" encoding="UTF-8"?>
<!--Generator: Apple Native CoreSVG 232.5-->
<!DOCTYPE svg
PUBLIC "-//W3C//DTD SVG 1.1//EN"
       "http://www.w3.org/Graphics/SVG/1.1/DTD/svg11.dtd">
<svg version="1.1" xmlns="http://www.w3.org/2000/svg" xmlns:xlink="http://www.w3.org/1999/xlink" width="30.249" height="29.8975">
 <g>
  <rect height="29.8975" opacity="0" width="30.249" x="0" y="0"/>
  <path d="M14.9414 29.8828C23.1152 29.8828 29.8828 23.1006 29.8828 14.9414C29.8828 6.76758 23.1006 0 14.9268 0C6.76758 0 0 6.76758 0 14.9414C0 23.1006 6.78223 29.8828 14.9414 29.8828ZM14.9414 27.3926C8.02734 27.3926 2.50488 21.8555 2.50488 14.9414C2.50488 8.02734 8.0127 2.49023 14.9268 2.49023C21.8408 2.49023 27.3926 8.02734 27.3926 14.9414C27.3926 21.8555 21.8555 27.3926 14.9414 27.3926Z" fill="#ffffff" fill-opacity="0.85"/>
  <path d="M14.9268 20.4492C17.959 20.4492 20.4492 17.9443 20.4492 14.9414C20.4492 11.9238 17.959 9.43359 14.9268 9.43359C11.9385 9.43359 9.43359 11.9238 9.43359 14.9414C9.43359 17.9443 11.9385 20.4492 14.9268 20.4492ZM17.5488 6.69434L15.5273 4.16016C15.2344 3.7793 14.707 3.7793 14.3848 4.16016L12.3486 6.69434C11.8799 7.26562 12.1582 7.99805 12.9199 7.99805L16.9775 7.99805C17.7246 7.99805 18.0029 7.23633 17.5488 6.69434ZM23.2031 17.5488L25.7373 15.5273C26.1182 15.2344 26.1182 14.6924 25.7373 14.3848L23.2031 12.3486C22.6318 11.8799 21.8994 12.1436 21.8994 12.9199L21.8994 16.9629C21.8994 17.71 22.6611 17.9883 23.2031 17.5488ZM17.5488 23.2031C18.0029 22.6611 17.7246 21.8994 16.9775 21.8994L12.9199 21.8994C12.1582 21.8994 11.8799 22.6318 12.3486 23.2031L14.3848 25.7373C14.707 26.1182 15.2344 26.1182 15.5273 25.7373ZM6.69434 17.5488C7.25098 17.9883 7.99805 17.71 7.99805 16.9629L7.99805 12.9199C7.99805 12.1436 7.28027 11.8799 6.69434 12.3486L4.16016 14.3848C3.7793 14.6924 3.7793 15.2344 4.16016 15.5273Z" fill="#ffffff" fill-opacity="0.85"/>
 </g>
</svg>
