<?xml version="1.0" encoding="UTF-8"?>
<svg id="Layer_1" xmlns="http://www.w3.org/2000/svg" xmlns:xlink="http://www.w3.org/1999/xlink" version="1.1" viewBox="0 0 30 30">
  <!-- Generator: Adobe Illustrator 29.3.0, SVG Export Plug-In . SVG Version: 2.1.0 Build 146)  -->
  <circle fill="#fff" cx="11.9" cy="15.4" r="1.1"/>
  <path fill="#fff" d="M4.2998,15.6001c-.05322,0-.10742-.0083-.16064-.02637-2.09375-.70947-3.40234-2.10986-3.58984-3.84326-.1665-1.53271.58203-3.08057,1.8623-3.85254,1.1626-.69873,2.53564-.62402,3.76807.20752.229.15479.28906.46533.13477.69434-.15479.22852-.46533.28809-.69434.13477-.90918-.61328-1.86426-.67773-2.69238-.18018-.93799.56592-1.50732,1.75342-1.38428,2.88867.146,1.34912,1.18213,2.41602,2.91699,3.00342.26123.08887.40137.37256.31299.63428-.0708.20801-.26514.33936-.47363.33936Z"/>
  <path fill="#fff" d="M25.7002,15.6001c-.20898,0-.40332-.13135-.47363-.33936-.08887-.26172.05176-.54541.31348-.63428,1.73438-.5874,2.77051-1.6543,2.91699-3.00342.12305-1.13477-.44629-2.32275-1.38477-2.88818-.82617-.49854-1.78223-.43506-2.69336.17969-.22656.15332-.53809.09473-.69336-.13477-.15527-.229-.09473-.53955.13477-.69434,1.2334-.83105,2.60547-.90771,3.76758-.20703,1.28027.77148,2.0293,2.31982,1.86328,3.85254-.1875,1.73291-1.49707,3.1333-3.59082,3.84277-.05273.01807-.10742.02637-.16016.02637Z"/>
  <path fill="#fff" d="M20.90039,21.7998c-.14844,0-.29492-.06543-.39355-.19141-.16992-.2168-.13281-.53125.08496-.70215,2.95117-2.31543,4.13867-6.17432,2.95508-9.60156-1.19043-3.44678-4.38574-5.50488-8.54688-5.50488-4.18457,0-7.39062,2.04834-8.57617,5.479-1.18408,3.42871.01514,7.29736,2.98486,9.62744.21729.1709.25537.48535.08496.70215-.17041.21777-.48584.25391-.70215.08496-3.30518-2.59277-4.63623-6.90967-3.3125-10.74121,1.33057-3.85254,4.89014-6.15234,9.521-6.15234,4.60742,0,8.15527,2.30957,9.49219,6.17822,1.32324,3.83057.00391,8.13623-3.2832,10.71533-.0918.07129-.2002.10645-.30859.10645Z"/>
  <circle fill="#fff" cx="18.1" cy="15.4" r="1.1"/>
  <path fill="#fff" d="M14.8999,25.22461h-.00049c-1.73877,0-3.30957-.7207-4.20166-1.92773-1.10449-1.47168-.92139-2.89746-.77393-4.04297.03027-.23633.06055-.46777.07764-.69238.02148-.2793-.31006-.73145-.63037-1.16895-.71973-.98145-1.80664-2.46484-.5918-4.3623,1.41748-2.16992,3.32422-1.53418,4.71582-1.0708.52441.17529,1.02051.34033,1.40479.34033.38672,0,.88184-.15674,1.40576-.32275,1.38867-.43799,3.29199-1.0415,4.70703,1.0415,1.25098,1.83936.25684,3.13477-.46973,4.08105-.41406.53906-.77148,1.00488-.74414,1.4707.02051.34766.05859.66992.09473.97656.14062,1.19824.27344,2.33008-.79297,3.75195-.89258,1.20605-2.46289,1.92578-4.20068,1.92578ZM11.35596,12.49951c-.66602,0-1.21875.28076-1.7373,1.07373-.84229,1.31641-.16162,2.24512.55908,3.22852.44775.61133.87061,1.18848.8208,1.83594-.01855.24219-.05029.49023-.08301.74414-.13672,1.06543-.27881,2.16797.58447,3.31836.70654.95605,1.97656,1.52441,3.39941,1.52441h.00049c1.42334,0,2.69385-.56836,3.39795-1.52148l.00195-.00293c.82812-1.10254.7373-1.87207.60059-3.03711-.03809-.32422-.07812-.66504-.09961-1.03418-.04883-.83789.45801-1.49902.94922-2.13867.79395-1.03418,1.23926-1.72754.43652-2.90918-.93164-1.37012-1.97363-1.15723-3.5791-.65039-.59961.18994-1.1665.36914-1.70752.36914-.54688,0-1.11719-.18994-1.72119-.3916-.70361-.23438-1.29834-.40869-1.82275-.40869Z"/>
</svg>
