<?xml version="1.0" encoding="UTF-8"?>
<!--Generator: Apple Native CoreSVG 232.5-->
<!DOCTYPE svg
PUBLIC "-//W3C//DTD SVG 1.1//EN"
       "http://www.w3.org/Graphics/SVG/1.1/DTD/svg11.dtd">
<svg version="1.1" xmlns="http://www.w3.org/2000/svg" xmlns:xlink="http://www.w3.org/1999/xlink" width="30.249" height="29.8975">
 <g>
  <rect height="29.8975" opacity="0" width="30.249" x="0" y="0"/>
  <path d="M14.9414 29.8828C23.1152 29.8828 29.8828 23.1006 29.8828 14.9414C29.8828 6.76758 23.1006 0 14.9268 0C6.76758 0 0 6.76758 0 14.9414C0 23.1006 6.78223 29.8828 14.9414 29.8828ZM14.9414 27.3926C8.02734 27.3926 2.50488 21.8555 2.50488 14.9414C2.50488 8.02734 8.0127 2.49023 14.9268 2.49023C21.8408 2.49023 27.3926 8.02734 27.3926 14.9414C27.3926 21.8555 21.8555 27.3926 14.9414 27.3926Z" fill="#ffffff" fill-opacity="0.85"/>
  <path d="M14.9268 22.1191C17.9297 22.1191 19.9658 20.1709 19.9658 17.2559C19.9658 15.8057 19.3506 14.5166 18.9111 13.5205C18.1201 11.8066 16.8164 9.65332 15.6738 7.9248C15.4688 7.58789 15.2197 7.44141 14.9268 7.44141C14.6338 7.44141 14.3994 7.58789 14.1797 7.9248C13.0371 9.65332 11.748 11.8066 10.9424 13.5205C10.5029 14.5166 9.8877 15.8057 9.8877 17.2559C9.8877 20.1709 11.9238 22.1191 14.9268 22.1191Z" fill="#ffffff" fill-opacity="0.85"/>
 </g>
</svg>
