<?xml version="1.0" encoding="UTF-8"?>
<!--Generator: Apple Native CoreSVG 232.5-->
<!DOCTYPE svg
PUBLIC "-//W3C//DTD SVG 1.1//EN"
       "http://www.w3.org/Graphics/SVG/1.1/DTD/svg11.dtd">
<svg version="1.1" xmlns="http://www.w3.org/2000/svg" xmlns:xlink="http://www.w3.org/1999/xlink" width="30.249" height="29.8975">
 <g>
  <rect height="29.8975" opacity="0" width="30.249" x="0" y="0"/>
  <path d="M14.9414 29.8828C23.1152 29.8828 29.8828 23.1006 29.8828 14.9414C29.8828 6.76758 23.1299 0 14.9561 0C14.1797 0 13.7988 0.46875 13.7988 1.23047L13.7988 6.89941C13.7988 7.54395 14.2383 8.04199 14.8682 8.04199C15.5127 8.04199 15.9521 7.54395 15.9521 6.89941L15.9521 1.20117L14.9268 2.49023C21.8701 2.49023 27.3779 8.02734 27.3779 14.9414C27.3779 21.8555 21.8555 27.3926 14.9414 27.3926C8.02734 27.3926 2.47559 21.8555 2.49023 14.9414C2.50488 11.8506 3.60352 9.05273 5.44922 6.89941C5.88867 6.32812 5.91797 5.63965 5.43457 5.12695C4.95117 4.61426 4.14551 4.6582 3.60352 5.30273C1.37695 7.91016 0 11.2939 0 14.9414C0 23.1006 6.78223 29.8828 14.9414 29.8828Z" fill="#ffffff" fill-opacity="0.85"/>
  <path d="M17.2852 17.0508C18.4424 15.835 18.208 14.209 16.8164 13.2422L9.06738 7.82227C8.33496 7.30957 7.57324 8.08594 8.08594 8.80371L13.4912 16.5527C14.4727 17.9443 16.0986 18.1934 17.2852 17.0508Z" fill="#ffffff" fill-opacity="0.85"/>
 </g>
</svg>
