<?xml version="1.0" encoding="UTF-8"?>
<!--Generator: Apple Native CoreSVG 232.5-->
<!DOCTYPE svg
PUBLIC "-//W3C//DTD SVG 1.1//EN"
       "http://www.w3.org/Graphics/SVG/1.1/DTD/svg11.dtd">
<svg version="1.1" xmlns="http://www.w3.org/2000/svg" xmlns:xlink="http://www.w3.org/1999/xlink" width="30.249" height="29.8975">
 <g>
  <rect height="29.8975" opacity="0" width="30.249" x="0" y="0"/>
  <path d="M14.9414 29.8828C23.1152 29.8828 29.8828 23.1006 29.8828 14.9414C29.8828 6.76758 23.1006 0 14.9268 0C6.76758 0 0 6.76758 0 14.9414C0 23.1006 6.78223 29.8828 14.9414 29.8828ZM14.9414 27.3926C8.02734 27.3926 2.50488 21.8555 2.50488 14.9414C2.50488 8.02734 8.0127 2.49023 14.9268 2.49023C21.8408 2.49023 27.3926 8.02734 27.3926 14.9414C27.3926 21.8555 21.8555 27.3926 14.9414 27.3926Z" fill="#ffffff" fill-opacity="0.85"/>
  <path d="M11.1475 22.0898C11.7334 22.0898 12.085 21.7969 12.1875 21.2549L12.8613 18.1055L15.5859 18.1055L14.9854 20.9766C14.8535 21.5771 15.2783 22.0898 15.8789 22.0898C16.4648 22.0898 16.8457 21.7969 16.9629 21.2549L17.6221 18.0908L19.1455 18.0908C19.7168 18.0908 20.127 17.666 20.127 17.1094C20.127 16.6113 19.7754 16.2451 19.292 16.2451L18.0176 16.2451L18.6475 13.2715L20.1855 13.2715C20.7568 13.2715 21.167 12.8467 21.167 12.29C21.167 11.792 20.8154 11.4258 20.332 11.4258L19.0283 11.4258L19.5996 8.68652C19.7021 8.08594 19.2773 7.57324 18.6768 7.57324C18.1055 7.57324 17.7393 7.86621 17.6221 8.42285L16.9922 11.4258L14.2676 11.4258L14.8242 8.68652C14.9561 8.10059 14.5312 7.57324 13.9307 7.57324C13.3447 7.57324 12.9785 7.86621 12.8613 8.42285L12.2314 11.4258L10.6934 11.4258C10.1221 11.4258 9.71191 11.8506 9.71191 12.4072C9.71191 12.9053 10.0635 13.2715 10.5615 13.2715L11.8359 13.2715L11.2207 16.2451L9.65332 16.2451C9.08203 16.2451 8.67188 16.6699 8.67188 17.2266C8.67188 17.7246 9.02344 18.0908 9.50684 18.0908L10.8252 18.0908L10.2393 20.9766C10.1221 21.5771 10.5615 22.0898 11.1475 22.0898ZM13.125 16.4209L13.7988 13.125L16.7578 13.125L16.0547 16.4209Z" fill="#ffffff" fill-opacity="0.85"/>
 </g>
</svg>
