<?xml version="1.0" encoding="UTF-8"?>
<!--Generator: Apple Native CoreSVG 232.5-->
<!DOCTYPE svg
PUBLIC "-//W3C//DTD SVG 1.1//EN"
       "http://www.w3.org/Graphics/SVG/1.1/DTD/svg11.dtd">
<svg version="1.1" xmlns="http://www.w3.org/2000/svg" xmlns:xlink="http://www.w3.org/1999/xlink" width="24.5361" height="24.1846">
 <g>
  <rect height="24.1846" opacity="0" width="24.5361" x="0" y="0"/>
  <path d="M0 12.085C0 12.8027 0.600586 13.3887 1.30371 13.3887L10.7812 13.3887L10.7812 22.8662C10.7812 23.5693 11.3672 24.1699 12.085 24.1699C12.8027 24.1699 13.4033 23.5693 13.4033 22.8662L13.4033 13.3887L22.8662 13.3887C23.5693 13.3887 24.1699 12.8027 24.1699 12.085C24.1699 11.3672 23.5693 10.7666 22.8662 10.7666L13.4033 10.7666L13.4033 1.30371C13.4033 0.600586 12.8027 0 12.085 0C11.3672 0 10.7812 0.600586 10.7812 1.30371L10.7812 10.7666L1.30371 10.7666C0.600586 10.7666 0 11.3672 0 12.085Z" fill="#ffffff" fill-opacity="0.85"/>
 </g>
</svg>
